<svg width="30" height="30" fill="none" xmlns="http://www.w3.org/2000/svg"><g clip-path="url(#a)"><path d="M29.402 7.732a3.77 3.77 0 00-2.652-2.67c-2.345-.63-11.72-.63-11.72-.63s-9.375 0-11.72.63a3.77 3.77 0 00-2.653 2.67C.03 10.088.03 15 .03 15s0 4.913.627 7.268a3.77 3.77 0 002.652 2.67c2.346.63 11.72.63 11.72.63s9.376 0 11.721-.63a3.77 3.77 0 002.652-2.67c.628-2.355.628-7.268.628-7.268s0-4.912-.628-7.268z" fill="url(#b)"/><path d="M11.961 19.46v-8.92L19.802 15l-7.84 4.46z" fill="#fff"/></g><defs><linearGradient id="b" x1="22.286" y1="4.432" x2="7.774" y2="25.568" gradientUnits="userSpaceOnUse"><stop stop-color="#FD6EFF"/><stop offset="1" stop-color="#00FFF6"/></linearGradient><clipPath id="a"><path fill="#fff" d="M0 0H30V30H0z"/></clipPath></defs></svg>