<svg width="30" height="30" fill="none" xmlns="http://www.w3.org/2000/svg"><path d="M10.001 15a5 5 0 1110-.001 5 5 0 01-10 .001zm-2.703 0a7.702 7.702 0 007.703 7.702 7.702 7.702 0 100-15.404A7.702 7.702 0 007.298 15zm13.91-8.008a1.8 1.8 0 101.8-1.799 1.8 1.8 0 00-1.8 1.8zM8.94 27.21c-1.462-.067-2.257-.31-2.785-.516a4.66 4.66 0 01-1.726-1.122 4.628 4.628 0 01-1.122-1.724c-.206-.528-.45-1.324-.516-2.786-.073-1.581-.087-2.056-.087-6.062s.016-4.48.087-6.062c.067-1.462.312-2.256.516-2.785.273-.7.598-1.2 1.122-1.726a4.623 4.623 0 011.726-1.122c.528-.206 1.323-.45 2.785-.516 1.582-.072 2.056-.087 6.06-.087 4.005 0 4.48.016 6.063.087 1.462.067 2.256.312 2.785.516.7.272 1.2.598 1.726 1.122.525.525.85 1.025 1.122 1.726.206.528.45 1.323.516 2.785.073 1.583.087 2.056.087 6.062s-.014 4.48-.087 6.062c-.067 1.462-.312 2.257-.516 2.785-.273.7-.598 1.2-1.122 1.725a4.66 4.66 0 01-1.726 1.122c-.528.206-1.323.45-2.785.516-1.581.072-2.056.087-6.062.087s-4.48-.015-6.06-.087zM8.816.09C7.22.165 6.128.418 5.176.789a7.358 7.358 0 00-2.658 1.73 7.329 7.329 0 00-1.73 2.657C.417 6.128.164 7.219.09 8.815.017 10.416 0 10.928 0 15c0 4.073.017 4.585.09 6.184.074 1.597.327 2.688.698 3.641a7.333 7.333 0 001.73 2.657 7.376 7.376 0 002.657 1.73c.955.371 2.044.624 3.641.697 1.6.073 2.11.091 6.185.091 4.073 0 4.585-.017 6.184-.09 1.597-.074 2.688-.327 3.641-.698a7.377 7.377 0 002.657-1.73 7.347 7.347 0 001.73-2.657c.371-.953.626-2.044.697-3.64.073-1.601.09-2.111.09-6.185 0-4.073-.017-4.585-.09-6.184-.072-1.597-.326-2.688-.696-3.641a7.377 7.377 0 00-1.73-2.657 7.34 7.34 0 00-2.657-1.73c-.954-.371-2.045-.626-3.64-.697C19.586.018 19.075 0 15.001 0s-4.586.017-6.186.09z" fill="url(#a)"/><path d="M10.001 15a5 5 0 1110-.001 5 5 0 01-10 .001zm-2.703 0a7.702 7.702 0 007.703 7.702 7.702 7.702 0 100-15.404A7.702 7.702 0 007.298 15zm13.91-8.008a1.8 1.8 0 101.8-1.799 1.8 1.8 0 00-1.8 1.8zM8.94 27.21c-1.462-.067-2.257-.31-2.785-.516a4.66 4.66 0 01-1.726-1.122 4.628 4.628 0 01-1.122-1.724c-.206-.528-.45-1.324-.516-2.786-.073-1.581-.087-2.056-.087-6.062s.016-4.48.087-6.062c.067-1.462.312-2.256.516-2.785.273-.7.598-1.2 1.122-1.726a4.623 4.623 0 011.726-1.122c.528-.206 1.323-.45 2.785-.516 1.582-.072 2.056-.087 6.06-.087 4.005 0 4.48.016 6.063.087 1.462.067 2.256.312 2.785.516.7.272 1.2.598 1.726 1.122.525.525.85 1.025 1.122 1.726.206.528.45 1.323.516 2.785.073 1.583.087 2.056.087 6.062s-.014 4.48-.087 6.062c-.067 1.462-.312 2.257-.516 2.785-.273.7-.598 1.2-1.122 1.725a4.66 4.66 0 01-1.726 1.122c-.528.206-1.323.45-2.785.516-1.581.072-2.056.087-6.062.087s-4.48-.015-6.06-.087zM8.816.09C7.22.165 6.128.418 5.176.789a7.358 7.358 0 00-2.658 1.73 7.329 7.329 0 00-1.73 2.657C.417 6.128.164 7.219.09 8.815.017 10.416 0 10.928 0 15c0 4.073.017 4.585.09 6.184.074 1.597.327 2.688.698 3.641a7.333 7.333 0 001.73 2.657 7.376 7.376 0 002.657 1.73c.955.371 2.044.624 3.641.697 1.6.073 2.11.091 6.185.091 4.073 0 4.585-.017 6.184-.09 1.597-.074 2.688-.327 3.641-.698a7.377 7.377 0 002.657-1.73 7.347 7.347 0 001.73-2.657c.371-.953.626-2.044.697-3.64.073-1.601.09-2.111.09-6.185 0-4.073-.017-4.585-.09-6.184-.072-1.597-.326-2.688-.696-3.641a7.377 7.377 0 00-1.73-2.657 7.34 7.34 0 00-2.657-1.73c-.954-.371-2.045-.626-3.64-.697C19.586.018 19.075 0 15.001 0s-4.586.017-6.186.09z" fill="url(#b)"/><defs><radialGradient id="a" cx="0" cy="0" r="1" gradientUnits="userSpaceOnUse" gradientTransform="matrix(39.164 0 0 39.1625 3.986 30.142)"><stop offset=".09" stop-color="#00FFF6"/><stop offset=".78" stop-color="#FD6EFF"/></radialGradient><radialGradient id="b" cx="0" cy="0" r="1" gradientUnits="userSpaceOnUse" gradientTransform="matrix(30.8667 0 0 30.8654 18.194 31.486)"><stop offset=".64" stop-color="#8C3AAA" stop-opacity="0"/><stop offset="1" stop-color="#FD6EFF"/></radialGradient></defs></svg>