<svg width="30" height="30" fill="none" xmlns="http://www.w3.org/2000/svg"><g clip-path="url(#a)"><path d="M30 15c0-8.284-6.716-15-15-15C6.716 0 0 6.716 0 15c0 7.034 4.843 12.937 11.377 14.558v-9.974H8.284V15h3.093v-1.975c0-5.106 2.31-7.472 7.323-7.472.95 0 2.59.187 3.26.373v4.155c-.353-.038-.968-.056-1.732-.056-2.46 0-3.41.932-3.41 3.354V15h4.9l-.842 4.584h-4.058V29.89c7.427-.897 13.183-7.22 13.183-14.89H30z" fill="url(#b)"/></g><defs><linearGradient id="b" x1="30.001" y1="7.97" x2="0" y2="21.92" gradientUnits="userSpaceOnUse"><stop offset=".11" stop-color="#FD6EFF"/><stop offset="1" stop-color="#00FFF6"/></linearGradient><clipPath id="a"><path fill="#fff" d="M0 0H30V30H0z"/></clipPath></defs></svg>