<svg width="45" height="45" fill="none" xmlns="http://www.w3.org/2000/svg"><path d="M22.5.5c12.15 0 22 9.85 22 22s-9.85 22-22 22-22-9.85-22-22 9.85-22 22-22z" fill="#fff" stroke="url(#a)"/><path d="M23.833 28.084l4.765-4.765h1.57l-5.55 5.55a.555.555 0 01-.785-.785zm7.605-6.56a.556.556 0 010 .481v-.48zm-6.82-6.864l5.55 5.55h-1.57l-4.765-4.765a.555.555 0 01.785-.785zm5.82 6.55v1.11h-.84l.201-.202.354-.353-.354-.354-.2-.201h.838zm-15.875 0h13.621l.555.555-.555.554H14.562v-1.11z" fill="#000" stroke="#000"/><defs><linearGradient id="a" x1="0" y1="22.5" x2="45" y2="22.5" gradientUnits="userSpaceOnUse"><stop stop-color="#006FFF"/><stop offset="1" stop-color="#FD6EFF"/></linearGradient></defs></svg>